<?xml version="1.0" encoding="UTF-8"?>
<svg width="619px" height="285px" viewBox="0 0 619 285" version="1.1" xmlns="http://www.w3.org/2000/svg" xmlns:xlink="http://www.w3.org/1999/xlink">
    <title>Artboard Copy 11</title>
    <defs>
        <linearGradient x1="50%" y1="0%" x2="50%" y2="100%" id="linearGradient-1">
            <stop stop-color="#FF772F" offset="0%"></stop>
            <stop stop-color="#E02A00" offset="100%"></stop>
        </linearGradient>
        <linearGradient x1="62.3527961%" y1="90.2412281%" x2="38.6175987%" y2="7.09292763%" id="linearGradient-2">
            <stop stop-color="#158EFF" offset="0%"></stop>
            <stop stop-color="#00E4FF" offset="100%"></stop>
        </linearGradient>
    </defs>
    <g id="Artboard-Copy-11" stroke="none" stroke-width="1" fill="none" fill-rule="evenodd">
        <g id="Group" transform="translate(-0.000000, 0.000000)" fill-rule="nonzero">
            <path d="M152.5,86 C147.805499,86 144,82.1951425 144,77.5014336 C144,72.8048575 147.805499,69 152.5,69 C157.194501,69 161,72.8048575 161,77.5014336 C161,82.1951425 157.194501,86 152.5,86 M18.5,196 C23.1945007,196 27,199.805499 27,204.5 C27,209.194501 23.1945007,213 18.5,213 C13.8054993,213 10,209.194501 10,204.5 C10,199.805499 13.8054993,196 18.5,196 M52.9707359,71.026189 L65.9854654,163.810047 C66.0671539,164.397694 66.5689547,164.833313 67.1611964,164.833313 L88.5285757,164.833313 C89.1208173,164.833313 89.6226182,165.271855 89.7043067,165.859502 L95.9884868,210.640519 C96.0876799,211.356805 95.5333651,212 94.8098383,212 L66.6944049,212 C43.206042,212 23.3061384,194.662961 20.0356807,171.355899 L6.01151464,71.3565575 C5.91232145,70.6402718 6.46663632,70 7.18724564,70 L51.7920875,70 C52.3843291,70 52.88613,70.4385423 52.9707359,71.026189 M41.2092454,1.02496421 L47.9878822,49.6421414 C48.0901461,50.3604924 47.5320773,51 46.8074644,51 L2.13566389,51 C1.54253317,51 1.03997907,50.5619811 0.958167939,49.9750358 L0.397177312,45.5656456 C-2.98921923,21.4950472 15.7104683,0 40.0288276,0 L40.0317495,0 C40.6248802,0 41.1274343,0.435098769 41.2092454,1.02496421 M129.790755,283.977956 L123.012118,235.354938 C122.909854,234.639508 123.467923,234 124.192536,234 L168.864336,234 C169.457467,234 169.960021,234.438019 170.041832,235.024964 L170.602823,239.434354 C173.989219,263.502033 155.289532,285 130.971172,285 C130.378042,285 129.872566,284.564901 129.790755,283.977956 M76.0121479,71.3565575 L82.2829842,116.079102 C82.3646509,116.669673 82.8663178,117.105291 83.4584014,117.105291 L104.846328,117.105291 C105.438412,117.105291 105.942995,117.54091 106.024662,118.13148 L119.041752,210.970887 C119.123418,211.561458 119.625085,212 120.217169,212 L164.810106,212 C165.536357,212 166.087607,211.356805 165.98844,210.640519 L151.953434,110.544698 C148.692599,87.2931851 128.84759,70 105.423828,70 L77.1904818,70 C76.4642315,70 75.9100646,70.6402718 76.0121479,71.3565575" id="path330" fill="url(#linearGradient-1)" transform="translate(85.500000, 142.500000) scale(-1, 1) rotate(-180.000000) translate(-85.500000, -142.500000) "></path>
            <path d="M249.648,214.784 C255.834667,214.784 261.789333,213.624 267.512,211.304 C273.234667,208.984 277.642667,206.122667 280.736,202.72 L280.736,202.72 L278.648,212 L311.824,212 L323.656,143.56 C324.893333,135.517333 325.512,130.645333 325.512,128.944 C325.512,121.52 323.965333,115.14 320.872,109.804 C317.778667,104.468 313.757333,100.485333 308.808,97.856 C303.858667,95.2266667 299.102667,93.3706667 294.54,92.288 C289.977333,91.2053333 285.453333,90.664 280.968,90.664 C263.490667,90.664 247.482667,95.3813333 232.944,104.816 L232.944,104.816 L237.816,131.728 C250.344,123.994667 262.794667,120.128 275.168,120.128 C286.613333,120.128 292.336,124.458667 292.336,133.12 C292.336,135.44 292.104,137.682667 291.64,139.848 L291.64,139.848 L290.944,143.096 C283.52,138.765333 275.322667,136.6 266.352,136.6 C249.802667,136.6 236.694667,140.544 227.028,148.432 C217.361333,156.32 212.528,166.837333 212.528,179.984 C212.528,190.501333 216.124,198.930667 223.316,205.272 C230.508,211.613333 239.285333,214.784 249.648,214.784 Z M259.392,185.088 C255.216,185.088 251.890667,184.353333 249.416,182.884 C246.941333,181.414667 245.704,179.442667 245.704,176.968 C245.704,172.946667 247.676,169.930667 251.62,167.92 C255.564,165.909333 260.32,164.904 265.888,164.904 C274.704,164.904 281.586667,165.754667 286.536,167.456 L286.536,167.456 L284.68,177.432 C277.410667,182.536 268.981333,185.088 259.392,185.088 Z M323.268324,258.168 L358.764324,247.496 L366.188324,204.344 C370.518991,211.304 377.865657,214.784 388.228324,214.784 C404.004324,214.784 417.692324,208.172 429.292324,194.948 C440.892324,181.724 446.692324,163.512 446.692324,140.312 C446.692324,125.154667 443.057657,113.090667 435.788324,104.12 C428.518991,95.1493333 419.702991,90.664 409.340324,90.664 C398.822991,90.664 390.316324,94.608 383.820324,102.496 L383.820324,102.496 L385.676324,93.448 L352.268324,93.448 L323.268324,258.168 Z M386.604324,182.072 C381.964324,182.072 378.406991,181.26 375.932324,179.636 C373.457657,178.012 371.910991,176.272 371.292324,174.416 L371.292324,174.416 L378.484324,132.192 C380.030991,129.717333 382.621657,127.590667 386.256324,125.812 C389.890991,124.033333 393.254991,123.144 396.348324,123.144 C402.225657,123.144 406.594991,125 409.456324,128.712 C412.317657,132.424 413.748324,137.528 413.748324,144.024 C413.748324,155.624 411.312324,164.865333 406.440324,171.748 C401.568324,178.630667 394.956324,182.072 386.604324,182.072 Z M491.312648,81.848 C496.880648,81.848 501.829981,79.644 506.160648,75.236 C510.491315,70.828 512.656648,65.6853333 512.656648,59.808 C512.656648,55.3226667 511.148648,51.572 508.132648,48.556 C505.116648,45.54 501.211315,44.032 496.416648,44.032 C491.312648,44.032 486.595315,46.236 482.264648,50.644 C477.933981,55.052 475.768648,60.1946667 475.768648,66.072 C475.768648,70.4026667 477.237981,74.1146667 480.176648,77.208 C483.115315,80.3013333 486.827315,81.848 491.312648,81.848 Z M485.048648,212 L505.928648,93.448 L472.520648,93.448 L451.640648,212 L485.048648,212 Z M542.428972,214.784 C548.615639,214.784 554.570305,213.624 560.292972,211.304 C566.015639,208.984 570.423639,206.122667 573.516972,202.72 L573.516972,202.72 L571.428972,212 L604.604972,212 L616.436972,143.56 C617.674305,135.517333 618.292972,130.645333 618.292972,128.944 C618.292972,121.52 616.746305,115.14 613.652972,109.804 C610.559639,104.468 606.538305,100.485333 601.588972,97.856 C596.639639,95.2266667 591.883639,93.3706667 587.320972,92.288 C582.758305,91.2053333 578.234305,90.664 573.748972,90.664 C556.271639,90.664 540.263639,95.3813333 525.724972,104.816 L525.724972,104.816 L530.596972,131.728 C543.124972,123.994667 555.575639,120.128 567.948972,120.128 C579.394305,120.128 585.116972,124.458667 585.116972,133.12 C585.116972,135.44 584.884972,137.682667 584.420972,139.848 L584.420972,139.848 L583.724972,143.096 C576.300972,138.765333 568.103639,136.6 559.132972,136.6 C542.583639,136.6 529.475639,140.544 519.808972,148.432 C510.142305,156.32 505.308972,166.837333 505.308972,179.984 C505.308972,190.501333 508.904972,198.930667 516.096972,205.272 C523.288972,211.613333 532.066305,214.784 542.428972,214.784 Z M552.172972,185.088 C547.996972,185.088 544.671639,184.353333 542.196972,182.884 C539.722305,181.414667 538.484972,179.442667 538.484972,176.968 C538.484972,172.946667 540.456972,169.930667 544.400972,167.92 C548.344972,165.909333 553.100972,164.904 558.668972,164.904 C567.484972,164.904 574.367639,165.754667 579.316972,167.456 L579.316972,167.456 L577.460972,177.432 C570.191639,182.536 561.762305,185.088 552.172972,185.088 Z" id="apia" fill="#FFFFFF"></path>
        </g>
        <g id="Group" transform="translate(-0.000000, 0.000000)" fill-rule="nonzero">
            <path d="M152.5,86 C147.805499,86 144,82.1951425 144,77.5014336 C144,72.8048575 147.805499,69 152.5,69 C157.194501,69 161,72.8048575 161,77.5014336 C161,82.1951425 157.194501,86 152.5,86 M18.5,196 C23.1945007,196 27,199.805499 27,204.5 C27,209.194501 23.1945007,213 18.5,213 C13.8054993,213 10,209.194501 10,204.5 C10,199.805499 13.8054993,196 18.5,196 M52.9707359,71.026189 L65.9854654,163.810047 C66.0671539,164.397694 66.5689547,164.833313 67.1611964,164.833313 L88.5285757,164.833313 C89.1208173,164.833313 89.6226182,165.271855 89.7043067,165.859502 L95.9884868,210.640519 C96.0876799,211.356805 95.5333651,212 94.8098383,212 L66.6944049,212 C43.206042,212 23.3061384,194.662961 20.0356807,171.355899 L6.01151464,71.3565575 C5.91232145,70.6402718 6.46663632,70 7.18724564,70 L51.7920875,70 C52.3843291,70 52.88613,70.4385423 52.9707359,71.026189 M41.2092454,1.02496421 L47.9878822,49.6421414 C48.0901461,50.3604924 47.5320773,51 46.8074644,51 L2.13566389,51 C1.54253317,51 1.03997907,50.5619811 0.958167939,49.9750358 L0.397177312,45.5656456 C-2.98921923,21.4950472 15.7104683,0 40.0288276,0 L40.0317495,0 C40.6248802,0 41.1274343,0.435098769 41.2092454,1.02496421 M129.790755,283.977956 L123.012118,235.354938 C122.909854,234.639508 123.467923,234 124.192536,234 L168.864336,234 C169.457467,234 169.960021,234.438019 170.041832,235.024964 L170.602823,239.434354 C173.989219,263.502033 155.289532,285 130.971172,285 C130.378042,285 129.872566,284.564901 129.790755,283.977956 M76.0121479,71.3565575 L82.2829842,116.079102 C82.3646509,116.669673 82.8663178,117.105291 83.4584014,117.105291 L104.846328,117.105291 C105.438412,117.105291 105.942995,117.54091 106.024662,118.13148 L119.041752,210.970887 C119.123418,211.561458 119.625085,212 120.217169,212 L164.810106,212 C165.536357,212 166.087607,211.356805 165.98844,210.640519 L151.953434,110.544698 C148.692599,87.2931851 128.84759,70 105.423828,70 L77.1904818,70 C76.4642315,70 75.9100646,70.6402718 76.0121479,71.3565575" id="path330" fill="url(#linearGradient-2)" transform="translate(85.500000, 142.500000) scale(-1, 1) rotate(-180.000000) translate(-85.500000, -142.500000) "></path>
            <path d="M249.648,214.784 C255.834667,214.784 261.789333,213.624 267.512,211.304 C273.234667,208.984 277.642667,206.122667 280.736,202.72 L280.736,202.72 L278.648,212 L311.824,212 L323.656,143.56 C324.893333,135.517333 325.512,130.645333 325.512,128.944 C325.512,121.52 323.965333,115.14 320.872,109.804 C317.778667,104.468 313.757333,100.485333 308.808,97.856 C303.858667,95.2266667 299.102667,93.3706667 294.54,92.288 C289.977333,91.2053333 285.453333,90.664 280.968,90.664 C263.490667,90.664 247.482667,95.3813333 232.944,104.816 L232.944,104.816 L237.816,131.728 C250.344,123.994667 262.794667,120.128 275.168,120.128 C286.613333,120.128 292.336,124.458667 292.336,133.12 C292.336,135.44 292.104,137.682667 291.64,139.848 L291.64,139.848 L290.944,143.096 C283.52,138.765333 275.322667,136.6 266.352,136.6 C249.802667,136.6 236.694667,140.544 227.028,148.432 C217.361333,156.32 212.528,166.837333 212.528,179.984 C212.528,190.501333 216.124,198.930667 223.316,205.272 C230.508,211.613333 239.285333,214.784 249.648,214.784 Z M259.392,185.088 C255.216,185.088 251.890667,184.353333 249.416,182.884 C246.941333,181.414667 245.704,179.442667 245.704,176.968 C245.704,172.946667 247.676,169.930667 251.62,167.92 C255.564,165.909333 260.32,164.904 265.888,164.904 C274.704,164.904 281.586667,165.754667 286.536,167.456 L286.536,167.456 L284.68,177.432 C277.410667,182.536 268.981333,185.088 259.392,185.088 Z M323.268324,258.168 L358.764324,247.496 L366.188324,204.344 C370.518991,211.304 377.865657,214.784 388.228324,214.784 C404.004324,214.784 417.692324,208.172 429.292324,194.948 C440.892324,181.724 446.692324,163.512 446.692324,140.312 C446.692324,125.154667 443.057657,113.090667 435.788324,104.12 C428.518991,95.1493333 419.702991,90.664 409.340324,90.664 C398.822991,90.664 390.316324,94.608 383.820324,102.496 L383.820324,102.496 L385.676324,93.448 L352.268324,93.448 L323.268324,258.168 Z M386.604324,182.072 C381.964324,182.072 378.406991,181.26 375.932324,179.636 C373.457657,178.012 371.910991,176.272 371.292324,174.416 L371.292324,174.416 L378.484324,132.192 C380.030991,129.717333 382.621657,127.590667 386.256324,125.812 C389.890991,124.033333 393.254991,123.144 396.348324,123.144 C402.225657,123.144 406.594991,125 409.456324,128.712 C412.317657,132.424 413.748324,137.528 413.748324,144.024 C413.748324,155.624 411.312324,164.865333 406.440324,171.748 C401.568324,178.630667 394.956324,182.072 386.604324,182.072 Z M491.312648,81.848 C496.880648,81.848 501.829981,79.644 506.160648,75.236 C510.491315,70.828 512.656648,65.6853333 512.656648,59.808 C512.656648,55.3226667 511.148648,51.572 508.132648,48.556 C505.116648,45.54 501.211315,44.032 496.416648,44.032 C491.312648,44.032 486.595315,46.236 482.264648,50.644 C477.933981,55.052 475.768648,60.1946667 475.768648,66.072 C475.768648,70.4026667 477.237981,74.1146667 480.176648,77.208 C483.115315,80.3013333 486.827315,81.848 491.312648,81.848 Z M485.048648,212 L505.928648,93.448 L472.520648,93.448 L451.640648,212 L485.048648,212 Z M542.428972,214.784 C548.615639,214.784 554.570305,213.624 560.292972,211.304 C566.015639,208.984 570.423639,206.122667 573.516972,202.72 L573.516972,202.72 L571.428972,212 L604.604972,212 L616.436972,143.56 C617.674305,135.517333 618.292972,130.645333 618.292972,128.944 C618.292972,121.52 616.746305,115.14 613.652972,109.804 C610.559639,104.468 606.538305,100.485333 601.588972,97.856 C596.639639,95.2266667 591.883639,93.3706667 587.320972,92.288 C582.758305,91.2053333 578.234305,90.664 573.748972,90.664 C556.271639,90.664 540.263639,95.3813333 525.724972,104.816 L525.724972,104.816 L530.596972,131.728 C543.124972,123.994667 555.575639,120.128 567.948972,120.128 C579.394305,120.128 585.116972,124.458667 585.116972,133.12 C585.116972,135.44 584.884972,137.682667 584.420972,139.848 L584.420972,139.848 L583.724972,143.096 C576.300972,138.765333 568.103639,136.6 559.132972,136.6 C542.583639,136.6 529.475639,140.544 519.808972,148.432 C510.142305,156.32 505.308972,166.837333 505.308972,179.984 C505.308972,190.501333 508.904972,198.930667 516.096972,205.272 C523.288972,211.613333 532.066305,214.784 542.428972,214.784 Z M552.172972,185.088 C547.996972,185.088 544.671639,184.353333 542.196972,182.884 C539.722305,181.414667 538.484972,179.442667 538.484972,176.968 C538.484972,172.946667 540.456972,169.930667 544.400972,167.92 C548.344972,165.909333 553.100972,164.904 558.668972,164.904 C567.484972,164.904 574.367639,165.754667 579.316972,167.456 L579.316972,167.456 L577.460972,177.432 C570.191639,182.536 561.762305,185.088 552.172972,185.088 Z" id="apia" fill="#FFFFFF"></path>
        </g>
    </g>
</svg>